http://kickass.to/rambo-iii-bdrip-xvid-sdteam-https-www-scenedemon-org-t4296754.html
Download Rambo III BDRip XviD-SDTeam(https://www scenedemon org) Torrent - KickassTorrents
login / register
Community
blog
FAQ
Browse
latest
Search
Advanced search 0
0
report fake
Rambo III BDRip XviD-SDTeam(https://www scenedemon org)
seeders: 0
leechers: 1
Download torrent
Added on Jul 31, 2010 in Movies	Torrent verified.	Downloaded 41 times.
Main
Technical
Trailer
Comments Movie: Rambo III
IMDB link: 0301766
Detected quality: DVDRip
Genres: Action, Animation, Adventure add Rambo III to bookmarks
Release date: 30 November 1988
Cast: Sylvester Stallone, Rutger Hauer, Kurtwood Smith and others Available in versions: DVDRip Rambo III BDRip XviD-SDTeam(https://www scenedemon org) (Size: 392.81 MB)
Rambo.III..BDRip.XviD-SDTeam.part01.rar
14.31 MB
Rambo.III..BDRip.XviD-SDTeam.part02.rar
14.31 MB
Rambo.III..BDRip.XviD-SDTeam.part03.rar
14.31 MB
Rambo.III..BDRip.XviD-SDTeam.part04.rar
14.31 MB
Rambo.III..BDRip.XviD-SDTeam.part05.rar
14.31 MB
Rambo.III..BDRip.XviD-SDTeam.part06.rar
14.31 MB
Rambo.III..BDRip.XviD-SDTeam.part07.rar
14.31 MB
Rambo.III..BDRip.XviD-SDTeam.part08.rar
14.31 MB
Rambo.III..BDRip.XviD-SDTeam.part09.rar
14.31 MB
Rambo.III..BDRip.XviD-SDTeam.part10.rar
14.31 MB
Rambo.III..BDRip.XviD-SDTeam.part11.rar
14.31 MB
Rambo.III..BDRip.XviD-SDTeam.part12.rar
14.31 MB
Rambo.III..BDRip.XviD-SDTeam.part13.rar
14.31 MB
Rambo.III..BDRip.XviD-SDTeam.part14.rar
14.31 MB
Rambo.III..BDRip.XviD-SDTeam.part15.rar
14.31 MB
Rambo.III..BDRip.XviD-SDTeam.part16.rar
14.31 MB
Rambo.III..BDRip.XviD-SDTeam.part17.rar
14.31 MB
Rambo.III..BDRip.XviD-SDTeam.part18.rar
14.31 MB
Rambo.III..BDRip.XviD-SDTeam.part19.rar
14.31 MB
Rambo.III..BDRip.XviD-SDTeam.part20.rar
14.31 MB
Rambo.III..BDRip.XviD-SDTeam.part21.rar
14.31 MB
Rambo.III..BDRip.XviD-SDTeam.part22.rar
14.31 MB
Rambo.III..BDRip.XviD-SDTeam.part23.rar
14.31 MB
Rambo.III..BDRip.XviD-SDTeam.part24.rar
14.31 MB
Rambo.III..BDRip.XviD-SDTeam.part25.rar
14.31 MB
Rambo.III..BDRip.XviD-SDTeam.part26.rar
14.31 MB
Rambo.III..BDRip.XviD-SDTeam.part27.rar
14.31 MB
Rambo.III..BDRip.XviD-SDTeam.part28.rar
6.55 MB
downloaded from www.scenedemon.org.sfv
3.75 KB
downloaded from www.scenedemon.org.txt
34 bytes
Undead.nfo
10.83 KB
Description
Language.....: English -(GREETZ TO THE GREATZ:
http://www.seedboxworld.com( for your cheap fast seedbox needs )
BadGirl2k9 UnDeaD algpz500 virusofsaten WICCYWOLF	FoxyB Joker321
http://www.imdb.com/title/tt0095956/ />
Rambo's Vietnam commanding officer Colonel Trautman is held hostage in Afghanistan, and its up to Rambo to rescue him.
Rambo.III..BDRip.XviD-SDTeam
Format : AVI
Format/Info : Audio Video Interleave
File size : 393 MiB
Duration : 1h 36mn
Overall bit rate : 571 Kbps
Writing application : MEncoder SVN-r22963
Writing library : MPlayer
Video
ID : 0
Format : MPEG-4 Visual
Format profile : Simple@L3
Format settings, BVOP : No
Format settings, QPel : No
Format settings, GMC : No warppoints
Format settings, Matrix : Default (H.263)
Codec ID : XVID
Codec ID/Hint : XviD
Duration : 1h 36mn
Bit rate : 495 Kbps
Width : 512 pixels
Height : 224 pixels
Display aspect ratio : 2.25:1
Frame rate : 23.976 fps
Resolution : 8 bits
Colorimetry : 4:2:0
Scan type : Progressive
Bits/(Pixel*Frame) : 0.180
Stream size : 340 MiB (87%)
Writing library : XviD 1.1.2 (UTC 2006-11-01)
Audio
ID : 1
Format : MPEG Audio
Format version : Version 1
Format profile : Layer 3
Codec ID : 55
Codec ID/Hint : MP3
Duration : 1h 36mn
Bit rate mode : Constant
Bit rate : 64.0 Kbps
Channel(s) : 2 channels
Sampling rate : 44.1 KHz
Stream size : 44.0 MiB (11%)
Alignment : Aligned on interleaves
Interleave, duration : 26 ms (0.63 video frame)
Interleave, preload duration : 522 ms
Related Torrents
torrent name
size
files
age
seed
leech
Rambo First Blood Part II BDRip XviD-SDTeam(https://www scenedemon org)
in Movies 377.84 MB
30
3 years
0
0
Rambo First Blood 1982 BDRip XviD-SDTeam(https://www scenedemon org)
in Movies 368.02 MB
29
3 years
0
0
Sharing Widget
Download torrent
392.81 MB
seeders:0
leechers:1
Rambo III BDRip XviD-SDTeam(https://www scenedemon org)
html bbcode Trackers
refresh
tracker name
Status
checked
seeders
leechers
downloads
http://genesis.1337x.org:1337/announce
outdated
13 Jul 2011
-
-
-
http://exodus.1337x.org/announce
outdated
13 Jul 2011
-
-
-
http://tracker.openbittorrent.com/announce
outdated
31 Jul 2010
-
-
-
udp://tracker.publicbt.com:80/announce
outdated
31 Jul 2010
-
-
-
udp://tracker.openbittorrent.com:80/announce
outdated
31 Jul 2010
-
-
-
http://tracker.publicbt.com/announce
deleted
14 Aug 2011
-
-
-
µTorrent compatible trackers list
http://genesis.1337x.org:1337/announce
http://exodus.1337x.org/announce
http://tracker.openbittorrent.com/announce
udp://tracker.publicbt.com:80/announce
udp://tracker.openbittorrent.com:80/announce
http://tracker.publicbt.com/announce
udp://tracker.openbittorrent.com/announce
Locations
name
1337x
Torrent hash: 7f096f27720bc4cfa75961164bf2a0f101aaaa78
All Comments
audio
vote 1 awful
2
3
4
5
6
7
8
9
10 best
0/10
video vote 1 awful
2
3
4
5
6
7
8
9
10 best
0/10
please, leave only comments related to that torrent
Not seeing the captcha?
Captcha *:
Post as a guest
or sign-in
Not seeing the captcha?
Captcha *:
reply
Advertising (remove)
Latest Forum Threads
black magic for money +91-9680801434by e.vcxh 1 min. ago
black magic for marriage +91-9680801434by e.vcxh 1 min. ago
black magic for love marriage +91-9680801434by e.vcxh 1 min. ago
black magic for love in india +91-9680801434by e.vcxh 1 min. ago
black magic woman +91-9680801434by e.vcxh 1 min. ago
Free voodoo spells +91-9680801434by e.vcxh 1 min. ago
Latest News
May'14 Updatesby KickassTorrents 1 month ago
April'14 Updatesby KickassTorrents 2 months ago
March upd.1 - Uploader rules fix and Torrents Day 2014by KickassTorrents 3 months ago
Blogroll
Number 100by The.Phoenix 18 min. ago
Religion, Humanity, And The Search For Meaningby VikTSlick 5 hours ago
Outside my Window Part 3by johnno23 19 hours ago
Question number (276)by man2014now 20 hours ago
Answer - 42by suicyco yesterday
Question number (275)by man2014now yesterday
Goodies
Firefox search plugin
uTorrent search template
Follow us on Twitter
Kickass wallpapers
Like us on Facebook
IRC official chat
Latest Searches
bluray french
2 sec. ago
lizz tayler
2 sec. ago
running wild resilient
2 sec. ago
u2 vinyl
2 sec. ago
little nicholas
2 sec. ago
remy does anal
2 sec. ago
arab arabic xxx
2 sec. ago
the moment
2 sec. ago
Bash Scripting
1 sec. ago
.Livia.Cum.For.Me
2 sec. ago
Hawaa Hawaai
2 sec. ago
Friends Links
Torrents.to
Torrent Downloads
TorrentReactor
Torrent Finder
Select Your Language
English
Afrikaans
Basque
Bengali
Bosnian
Chinese Simplified
Croatian
Czech
Danish
Dutch
Filipino
Finnish
French
Georgian
German
Greek
Hindi
Hungarian
Indonesian
Italian
Lithuanian
Malaysian
Norwegian
Pirate
Polish
Portuguese
Romanian
Russian
Serbian
Serbian-Cyrillic
Slovak
Spanish
Swedish
Telugu
Turkish
change language
rules
idea box
Achievements
trends
Latest Searches
torrent requests about
privacy
dmca
logos
contacts
api
chat
BitCoin: 19CWNopXCHSwWtWQ89NHC471LMn2Gy5j5G
Report a bug

